<svg width="32" height="32" viewBox="0 0 32 32" fill="none" xmlns="http://www.w3.org/2000/svg">
<circle cx="16" cy="16" r="16" fill="#009E56"/>
<g filter="url(#filter0_d_1910_73)">
<rect x="6.9209" y="9.84668" width="18.288" height="5.184" rx="2.592" fill="white"/>
</g>
<g filter="url(#filter1_d_1910_73)">
<path fill-rule="evenodd" clip-rule="evenodd" d="M22.6182 15.0396L22.617 15.0402C22.6082 15.0402 22.5994 15.0402 22.5906 15.0401C22.5998 15.04 22.609 15.0398 22.6182 15.0396ZM24.6934 10.8965C24.593 10.7624 24.48 10.6384 24.356 10.5262C24.2454 10.4208 24.1068 10.3175 23.9347 10.2157C23.5486 9.98729 23.0981 9.8562 22.617 9.8562C22.4398 9.84097 22.0537 9.84739 21.7536 9.85238C21.6315 9.85441 21.5236 9.8562 21.4499 9.8562C17.6477 9.8562 14.4143 12.292 13.2252 15.6883C13.1397 15.878 13.0759 16.0811 13.0374 16.2951L13.0372 16.2962C12.9112 16.7637 12.8232 17.2468 12.7766 17.7419L11.8728 22.7565C11.6189 24.1653 12.5552 25.5132 13.964 25.7671C15.3728 26.021 16.7207 25.0848 16.9746 23.676L18.1392 17.2146C18.1486 17.1623 18.1564 17.11 18.1626 17.0579C18.3467 16.4035 18.7735 15.87 19.3252 15.5391C19.7869 15.2243 20.3449 15.0402 20.9459 15.0402H22.5435C22.5488 15.0402 22.554 15.0403 22.5593 15.0403C22.5646 15.0403 22.5699 15.0402 22.5751 15.0402H22.617C23.465 15.0402 24.218 14.6329 24.6909 14.0032C25.0252 13.5701 25.2233 13.0317 25.2233 12.4483C25.2233 11.8663 25.0262 11.3291 24.6934 10.8965ZM22.6134 9.85677C22.6146 9.85658 22.6158 9.85639 22.617 9.8562C22.6203 9.85649 22.6236 9.85678 22.6268 9.85707C22.6224 9.85696 22.6179 9.85686 22.6134 9.85677ZM23.8897 10.2021C23.9044 10.2066 23.9194 10.2111 23.9347 10.2157C24.0857 10.305 24.2268 10.4092 24.356 10.5262C24.3863 10.555 24.4144 10.5839 24.4406 10.613C24.2767 10.454 24.0915 10.3155 23.8897 10.2021Z" fill="white"/>
</g>
<rect x="10.72" y="9.88794" width="10.4" height="5.12" fill="white"/>
<defs>
<filter id="filter0_d_1910_73" x="6.2809" y="9.84668" width="19.568" height="6.46408" filterUnits="userSpaceOnUse" color-interpolation-filters="sRGB">
<feFlood flood-opacity="0" result="BackgroundImageFix"/>
<feColorMatrix in="SourceAlpha" type="matrix" values="0 0 0 0 0 0 0 0 0 0 0 0 0 0 0 0 0 0 127 0" result="hardAlpha"/>
<feOffset dy="0.64"/>
<feGaussianBlur stdDeviation="0.32"/>
<feComposite in2="hardAlpha" operator="out"/>
<feColorMatrix type="matrix" values="0 0 0 0 0 0 0 0 0 0 0 0 0 0 0 0 0 0 0.25 0"/>
<feBlend mode="normal" in2="BackgroundImageFix" result="effect1_dropShadow_1910_73"/>
<feBlend mode="normal" in="SourceGraphic" in2="effect1_dropShadow_1910_73" result="shape"/>
</filter>
<filter id="filter1_d_1910_73" x="11.5753" y="9.27068" width="14.544" height="17.1139" filterUnits="userSpaceOnUse" color-interpolation-filters="sRGB">
<feFlood flood-opacity="0" result="BackgroundImageFix"/>
<feColorMatrix in="SourceAlpha" type="matrix" values="0 0 0 0 0 0 0 0 0 0 0 0 0 0 0 0 0 0 127 0" result="hardAlpha"/>
<feOffset dx="0.32"/>
<feGaussianBlur stdDeviation="0.288"/>
<feComposite in2="hardAlpha" operator="out"/>
<feColorMatrix type="matrix" values="0 0 0 0 0 0 0 0 0 0 0 0 0 0 0 0 0 0 0.2 0"/>
<feBlend mode="normal" in2="BackgroundImageFix" result="effect1_dropShadow_1910_73"/>
<feBlend mode="normal" in="SourceGraphic" in2="effect1_dropShadow_1910_73" result="shape"/>
</filter>
</defs>
</svg>
